<svg width="920" height="360" xmlns="http://www.w3.org/2000/svg" xmlns:svg="http://www.w3.org/2000/svg">
 <!-- Created with SVG-edit - http://svg-edit.googlecode.com/ -->
 <g>
  <title>Layer 1</title>
  <rect fill="#ffffaa" stroke="#000000" x="489" y="12" width="129" height="154" id="svg_1"/>
  <text fill="#000000" stroke="#000000" stroke-width="0" stroke-linejoin="null" stroke-linecap="null" x="546" y="98.29412" id="svg_4" font-size="24" font-family="serif" text-anchor="middle" xml:space="preserve" transform="matrix(1,0,0,0.6538461446762085,0,84.46154069900513) ">5</text>
  <text fill="#000000" stroke="#000000" stroke-width="0" stroke-linejoin="null" stroke-linecap="null" x="544" y="44.76471" font-size="24" font-family="serif" text-anchor="middle" xml:space="preserve" transform="matrix(1,0,0,0.6538461446762085,0,84.46154069900513) " id="svg_5">5</text>
  <text fill="#000000" stroke="#000000" stroke-width="0" stroke-linejoin="null" stroke-linecap="null" x="646" y="158" id="svg_6" font-size="16" font-family="serif" text-anchor="middle" xml:space="preserve">a</text>
  <text fill="#000000" stroke="#000000" stroke-width="0" stroke-linejoin="null" stroke-linecap="null" x="644" y="119" id="svg_7" font-size="16" font-family="serif" text-anchor="middle" xml:space="preserve">b</text>
  <text fill="#000000" stroke="#000000" stroke-width="0" stroke-linejoin="null" stroke-linecap="null" x="186" y="94" id="svg_8" font-size="16" font-family="Sans-serif" text-anchor="middle" xml:space="preserve">b = a</text>
  <text fill="#000000" stroke="#000000" stroke-width="0" stroke-linejoin="null" stroke-linecap="null" x="272" y="50" id="svg_9" font-size="16" font-family="Sans-serif" text-anchor="middle" xml:space="preserve">a and b primitive type datatype</text>
  <path fill="#000000" stroke="#000000" stroke-width="0" stroke-linejoin="null" stroke-linecap="null" d="m624.13,125.021c-0.494,-0.453 -0.43001,-0.72699 0.77199,-3.269c0.60701,-1.283 1.10301,-2.371 1.10301,-2.416c0,-0.046 -1.675,-0.083 -3.72301,-0.083l-3.72299,0l0,-2.403l0,-2.404l3.752,0c2.894,0 3.72099,-0.072 3.612,-0.316c-0.07701,-0.174 -0.60701,-1.328 -1.17601,-2.56499c-1.073,-2.332 -1.073,-2.957 0.002,-3.151c0.53401,-0.096 8.86,7.314 9.14601,8.141c-2.77301,2.953 -6.088,6.044 -9.142,8.77c-0.16101,0 -0.44101,-0.13699 -0.623,-0.304l0,0l0,0l0,0l0,0l0,0l0,-0.00001z" id="svg_10"/>
  <path fill="#000000" stroke="#000000" stroke-width="0" stroke-linejoin="null" stroke-linecap="null" d="m624.13,162.021c-0.494,-0.453 -0.43001,-0.72699 0.77199,-3.269c0.60701,-1.283 1.10301,-2.371 1.10301,-2.416c0,-0.04601 -1.675,-0.08299 -3.72302,-0.08299l-3.72298,0l0,-2.403l0,-2.40401l3.752,0c2.894,0 3.72098,-0.07201 3.612,-0.31599c-0.07701,-0.17401 -0.60701,-1.32799 -1.17601,-2.565c-1.073,-2.33199 -1.073,-2.95699 0.002,-3.15099c0.53401,-0.09602 8.86,7.31401 9.14601,8.14098c-2.77301,2.953 -6.088,6.04402 -9.142,8.77c-0.16101,0 -0.44101,-0.13699 -0.623,-0.304l0,0z" id="svg_11"/>
  <rect fill="#ffffaa" stroke="#000000" x="492" y="190" width="129" height="154" id="svg_12"/>
  <text fill="#000000" stroke="#000000" stroke-width="0" stroke-linejoin="null" stroke-linecap="null" x="678" y="345" font-size="16" font-family="serif" text-anchor="middle" xml:space="preserve" id="svg_17">a</text>
  <text fill="#000000" stroke="#000000" stroke-width="0" stroke-linejoin="null" stroke-linecap="null" x="677" y="316" font-size="16" font-family="serif" text-anchor="middle" xml:space="preserve" id="svg_18">b</text>
  <text fill="#000000" stroke="#000000" stroke-width="0" stroke-linejoin="null" stroke-linecap="null" x="299" y="273" font-size="16" font-family="Sans-serif" text-anchor="middle" xml:space="preserve" id="svg_19">b = a</text>
  <text fill="#000000" stroke="#000000" stroke-width="0" stroke-linejoin="null" stroke-linecap="null" x="266" y="249" font-size="16" font-family="Sans-serif" text-anchor="middle" xml:space="preserve" id="svg_20">a and b object type  datatype</text>
  <text fill="#000000" stroke="#000000" stroke-width="0" stroke-linejoin="null" stroke-linecap="null" x="562" y="325" font-size="16" font-family="serif" text-anchor="middle" xml:space="preserve" id="svg_24">{ }</text>
  <path fill="#000000" stroke="#000000" stroke-width="0" stroke-linejoin="null" stroke-linecap="null" d="m657.623,343.36301l6.05299,-3.49002l6.05101,-3.491l-6.054,-3.49399l-6.05,-3.491l0,3.88199c-1.483,0 -3.207,0 -3.784,0c-2.75301,0.078 -6.15001,-2.08701 -9.765,-4.88098c-1.347,-0.978 -2.707,-2.05502 -4.147,-3.02802c1.44,-0.974 2.798,-2.04999 4.147,-3.02899c3.61499,-2.78799 7.01199,-4.95801 9.76199,-4.879l3.787,-0.00101l0,3.88699l6.05,-3.49298l6.054,-3.49402l-6.05,-3.50299l-6.05099,-3.495l0,3.88599l-3.78601,0c-5.62199,0.07901 -9.82399,3.41699 -13.50099,6.13101c-3.65001,2.86301 -6.93001,5.01999 -8.83301,4.879l-10.853,0l0,6.203l10.858,0c1.901,-0.14099 5.183,2.01599 8.83299,4.879c3.675,2.715 7.875,6.052 13.49901,6.13098l3.784,0l0,3.89102l-0.004,0l0,0l0,0l0,0l0,0l0,0l0.00001,0.00002z" id="svg_25"/>
  <text fill="#000000" stroke="#000000" stroke-width="0" stroke-linejoin="null" stroke-linecap="null" x="771" y="55" id="svg_26" font-size="16" font-family="Sans-serif" text-anchor="middle" xml:space="preserve">a and b allocates two different memory</text>
  <text fill="#000000" stroke="#000000" stroke-width="0" stroke-linejoin="null" stroke-linecap="null" x="761" y="244" id="svg_27" font-size="16" font-family="Sans-serif" text-anchor="middle" xml:space="preserve">a and b referes to the same object</text>
  <line fill="none" stroke-linejoin="null" stroke-linecap="null" x1="10" y1="176" x2="907" y2="177" id="svg_28" stroke="#000000"/>
  <text fill="#000000" stroke="#000000" stroke-width="0" stroke-linejoin="null" stroke-linecap="null" x="420" y="20" id="svg_29" font-size="16" font-family="Sans-serif" text-anchor="middle" xml:space="preserve" font-weight="bold">By Value</text>
  <text fill="#000000" stroke="#000000" stroke-width="0" stroke-linejoin="null" stroke-linecap="null" x="422" y="197" id="svg_30" font-size="16" font-family="Sans-serif" text-anchor="middle" xml:space="preserve" font-weight="bold">By Reference</text>
  <text font-weight="bold" transform="rotate(-29.69470977783203 555.4090576171875,51.202705383300874) matrix(1.032681438893263,0,0,1,-2.4852360679083443,-10.015083203836305) " xml:space="preserve" text-anchor="middle" font-family="serif" font-size="16" id="svg_31" y="65.94697" x="540.25781" stroke-linecap="null" stroke-linejoin="null" stroke-width="0" stroke="#000000" fill="#7f003f">memory space</text>
  <text id="svg_32" font-weight="bold" transform="rotate(-29.69470977783203 549.4230957031251,245.19914245605463) matrix(1.032681438893263,0,0,1,-2.4852360679083443,-10.015083203836305) " xml:space="preserve" text-anchor="middle" font-family="serif" font-size="16" y="259.94697" x="534.4477" stroke-linecap="null" stroke-linejoin="null" stroke-width="0" stroke="#000000" fill="#7f003f">memory space</text>
  <rect fill="#ffffaa" stroke="#000000" x="15" y="11" width="129" height="154" id="svg_14"/>
  <line fill="none" stroke="#000000" stroke-width="null" stroke-dasharray="null" stroke-linejoin="null" stroke-linecap="null" x1="15" y1="123" x2="144" y2="123" id="svg_15"/>
  <text fill="#000000" stroke="#000000" stroke-width="0" stroke-linejoin="null" stroke-linecap="null" x="74" y="90.64706" font-size="24" font-family="serif" text-anchor="middle" xml:space="preserve" transform="matrix(1,0,0,0.6538461446762085,0,84.46154069900513) " id="svg_21">5</text>
  <path fill="#000000" stroke="#000000" stroke-width="0" stroke-linejoin="null" stroke-linecap="null" d="m150.13,153.021c-0.494,-0.453 -0.43001,-0.72699 0.77199,-3.269c0.60701,-1.283 1.10301,-2.371 1.10301,-2.416c0,-0.04601 -1.675,-0.08299 -3.72302,-0.08299l-3.72298,0l0,-2.403l0,-2.40401l3.752,0c2.894,0 3.72098,-0.07201 3.612,-0.31599c-0.07701,-0.17401 -0.60701,-1.32799 -1.17601,-2.565c-1.073,-2.33199 -1.073,-2.95699 0.002,-3.15099c0.53401,-0.09602 8.86,7.31401 9.14601,8.14098c-2.77301,2.953 -6.088,6.04402 -9.142,8.77c-0.16101,0 -0.44101,-0.13699 -0.623,-0.304l0,0z" id="svg_22"/>
  <text fill="#000000" stroke="#000000" stroke-width="0" stroke-linejoin="null" stroke-linecap="null" x="168" y="146" font-size="16" font-family="serif" text-anchor="middle" xml:space="preserve" id="svg_23">a</text>
  <text fill="#000000" stroke="#000000" stroke-width="0" stroke-dasharray="null" stroke-linejoin="null" stroke-linecap="null" x="760" y="84" id="svg_33" font-size="16" font-family="Sans-serif" text-anchor="middle" xml:space="preserve">space and copy the value their own.</text>
  <text font-weight="bold" transform="rotate(-29.69470977783203 76.40962982177734,69.21119689941408) matrix(1.032681438893263,0,0,1,-2.4852360679083443,-10.015083203836305) " xml:space="preserve" text-anchor="middle" font-family="serif" font-size="16" y="83.94697" x="76.4168" stroke-linecap="null" stroke-linejoin="null" stroke-width="0" stroke="#000000" fill="#7f003f" id="svg_34">memory space</text>
  <rect fill="#ffffaa" stroke="#000000" x="14" y="191" width="129" height="154" id="svg_35"/>
  <text font-weight="bold" transform="rotate(-29.69470977783203 82.40948486328132,242.21351623535162) matrix(1.032681438893263,0,0,1,-2.4852360679083443,-10.015083203836305) " xml:space="preserve" text-anchor="middle" font-family="serif" font-size="16" y="256.94697" x="82.22692" stroke-linecap="null" stroke-linejoin="null" stroke-width="0" stroke="#000000" fill="#7f003f" id="svg_36">memory space</text>
  <text fill="#000000" stroke="#000000" stroke-width="0" stroke-linejoin="null" stroke-linecap="null" x="71" y="328" font-size="16" font-family="serif" text-anchor="middle" xml:space="preserve" id="svg_38">{ }</text>
  <path fill="#000000" stroke="#000000" stroke-width="0" stroke-linejoin="null" stroke-linecap="null" d="m150.13,332.021c-0.494,-0.453 -0.43001,-0.72699 0.77199,-3.269c0.60701,-1.283 1.10301,-2.371 1.10301,-2.416c0,-0.04601 -1.675,-0.08299 -3.72302,-0.08299l-3.72298,0l0,-2.403l0,-2.40401l3.752,0c2.894,0 3.72098,-0.07201 3.612,-0.31599c-0.07701,-0.17401 -0.60701,-1.32799 -1.17601,-2.565c-1.073,-2.33199 -1.073,-2.95699 0.002,-3.15099c0.53401,-0.09602 8.86,7.31401 9.14601,8.14098c-2.77301,2.953 -6.088,6.04402 -9.142,8.77c-0.16101,0 -0.44101,-0.13699 -0.623,-0.304l0,0z" id="svg_39"/>
  <text fill="#000000" stroke="#000000" stroke-width="0" stroke-linejoin="null" stroke-linecap="null" x="168" y="325" font-size="16" font-family="serif" text-anchor="middle" xml:space="preserve" id="svg_40">a</text>
  <text fill="#000000" stroke="#000000" stroke-width="0" stroke-dasharray="null" stroke-linejoin="null" stroke-linecap="null" x="704" y="264" id="svg_41" font-size="16" font-family="Sans-serif" text-anchor="middle" xml:space="preserve">in memory space.</text>
  <line fill="none" stroke="#000000" stroke-width="null" stroke-dasharray="null" stroke-linejoin="null" stroke-linecap="null" x1="380" y1="202" x2="463" y2="202" id="svg_42"/>
  <line fill="none" stroke-width="null" stroke-dasharray="null" stroke-linejoin="null" stroke-linecap="null" x1="390" y1="28" x2="454" y2="28" id="svg_43" stroke="#000000"/>
  <line fill="none" stroke="#000000" stroke-width="null" stroke-dasharray="null" stroke-linejoin="null" stroke-linecap="null" x1="451" y1="241" x2="450" y2="241" id="svg_44"/>
  <line fill="none" stroke="#000000" stroke-width="null" stroke-dasharray="null" stroke-linejoin="null" stroke-linecap="null" x1="493" y1="297" x2="621" y2="297" id="svg_48"/>
  <line fill="none" stroke="#000000" stroke-width="null" stroke-dasharray="null" stroke-linejoin="null" stroke-linecap="null" x1="15" y1="296" x2="142" y2="295" id="svg_49"/>
  <line fill="none" stroke="#000000" stroke-width="null" stroke-dasharray="null" stroke-linejoin="null" stroke-linecap="null" x1="490" y1="127" x2="617" y2="127" id="svg_50"/>
  <line fill="none" stroke="#000000" stroke-width="null" stroke-dasharray="null" stroke-linejoin="null" stroke-linecap="null" x1="489" y1="87" x2="617" y2="87" id="svg_51"/>
  <text fill="#000000" stroke="#000000" stroke-width="0" stroke-dasharray="null" stroke-linejoin="null" stroke-linecap="null" x="248" y="71" id="svg_2" font-size="16" font-family="Sans-serif" text-anchor="middle" xml:space="preserve">(e.g. number, string etc)</text>
 </g>
</svg>